<svg t="1570182269236" class="icon" viewBox="0 0 1024 1024" version="1.1" xmlns="http://www.w3.org/2000/svg" p-id="5156" width="200" height="200"><path d="M850.381633 222.577394H309.356581L489.306305 43.387593 653.745604 207.138962c7.055283 7.023287 18.478123 7.023287 25.517408 0a17.91818 17.91818 0 0 0 0-25.413419L502.073008 5.271465a18.102161 18.102161 0 0 0-25.517408 0L258.313765 222.577394H165.643177C94.586394 222.577394 36.768266 280.155547 36.768266 350.924359v544.616688C36.768266 966.317858 94.586394 1023.896011 165.635178 1023.896011h142.065571a18.006171 18.006171 0 0 0 18.038168-17.966176c0-9.926992-8.079179-17.974174-18.046167-17.974174H165.635178c-51.146805 0-92.766578-41.459789-92.766579-92.414614V350.924359c0-50.954825 41.619773-92.406615 92.774578-92.406615h684.738456c30.540898 0 55.378376 24.733488 55.378376 55.146399v112.284597c0 9.926992 8.079179 17.974174 18.046167 17.974174a18.006171 18.006171 0 0 0 18.046167-17.974174V313.656144c0-50.226899-41.035832-91.07875-91.47071-91.07875z" fill="#ffffff" p-id="5157"></path><path d="M931.189426 462.47303h-256.693929c-30.900862 0-56.042308 25.037457-56.042309 55.802333v209.922679c0 30.772875 25.141447 55.802333 56.042309 55.802333h231.264512v148.808887c0 30.404912-24.837477 55.146399-55.378376 55.146399H379.885418a18.006171 18.006171 0 0 0-18.046167 17.966175c0 9.926992 8.079179 17.974174 18.046167 17.974175h470.496215c50.434878 0 91.47071-40.85985 91.47071-91.086749V782.976479c25.813378-4.975495 45.371392-27.645192 45.371392-54.778437V518.267363c0-30.764875-25.133447-55.794333-56.034309-55.794333z m19.941975 265.725012a19.925976 19.925976 0 0 1-19.941975 19.861983h-256.693929a19.925976 19.925976 0 0 1-19.949974-19.861983V518.267363a19.925976 19.925976 0 0 1 19.949974-19.861982h256.693929a19.925976 19.925976 0 0 1 19.941975 19.861982v209.930679z" fill="#ffffff" p-id="5158"></path><path d="M813.545374 605.266528a18.006171 18.006171 0 0 0-18.046167 17.966175c0 17.142259-13.998578 31.092842-31.220829 31.092842-17.214252 0-31.220829-13.942584-31.220829-31.092842 0-17.142259 14.006577-31.084843 31.220829-31.084843a18.006171 18.006171 0 0 0 18.046167-17.966175c0-9.926992-8.079179-17.974174-18.046167-17.974175-37.11623 0-67.313164 30.076945-67.313164 67.033192 0 36.956247 30.196933 67.033192 67.313164 67.033192 37.11623 0 67.313164-30.076945 67.313163-67.033192a18.006171 18.006171 0 0 0-18.046167-17.974174z" fill="#ffffff" p-id="5159"></path></svg>