<svg t="1570181919526" class="icon" viewBox="0 0 1024 1024" version="1.1" xmlns="http://www.w3.org/2000/svg" p-id="4608" width="200" height="200"><path d="M576.392 578.784c-9.584-6.608-27.832-13.632-54.696-21.192L521.696 472.992c15.96 0.576 27.56 6.728 34.856 18.408 3.904 6.384 6.336 13.96 7.104 22.752l30.408 0c-0.632-19.616-7.032-35.424-19.336-47.36-12.264-11.992-30.072-18.752-53.064-20.376l0-22.752L505.2 423.664l0 23.08c-23.296 0.248-41.4 7.448-54.304 21.536-12.896 14.128-19.32 30.016-19.32 47.592 0 19.696 5.904 35.024 17.888 46.168 11.992 11.144 30.496 19.104 55.728 23.816l0 94.648c-19.632-1.656-33.08-9.024-40.336-22.088-4.016-7.264-6.496-18.864-7.512-34.688l-30.664 0c0 19.968 3.28 35.712 9.88 47.392 12.024 21.648 34.832 33.584 68.632 35.784l0 33.76 16.464 0 0-33.76c20.888-2.288 36.944-7.032 48.088-14.192 20.032-13 30.056-34.824 30.056-65.696C599.832 605.736 591.976 589.616 576.392 578.784zM505.232 554.272c-13.048-2.552-23.304-7.104-30.904-13.528-7.68-6.496-11.48-15.496-11.48-26.936 0-9.504 3.248-18.568 9.672-27.224 6.472-8.704 17.456-13.32 32.712-13.896L505.232 554.272zM562.656 659.664c-7.496 13.592-21.168 20.832-40.96 21.76L521.696 590.088c14.472 3.912 24.712 8.096 30.88 12.528 10.672 7.528 16.016 18.512 16.016 32.968C568.592 644.672 566.568 652.736 562.656 659.664z" p-id="4609" fill="#ffffff"></path><path d="M930.504 234.56 701.448 234.56l0-50.656c0-67.72-55.12-122.84-122.832-122.84L447.88 61.064c-67.72 0-122.832 55.12-122.832 122.84l0 50.656L95.976 234.56c-50.656 0-92.128 41.472-92.128 92.112l0 510.912c0 50.64 41.472 92.096 92.128 92.096l834.528 0c50.672 0 92.128-41.456 92.128-92.096L1022.632 326.672C1022.632 276.032 981.176 234.56 930.504 234.56zM386.504 183.904c0-33.864 27.576-61.4 61.44-61.4l130.728 0c33.832 0 61.456 27.536 61.456 61.4l0 50.656L386.544 234.56l0-50.656L386.504 183.904zM513.248 781.776c-110.24 0-199.648-89.376-199.648-199.576 0-110.288 89.408-199.672 199.648-199.672 110.304 0 199.648 89.392 199.648 199.672C712.888 692.4 623.544 781.776 513.248 781.776z" p-id="4610" fill="#ffffff"></path></svg>