<svg t="1570181972097" class="icon" viewBox="0 0 1024 1024" version="1.1" xmlns="http://www.w3.org/2000/svg" p-id="4864" width="200" height="200"><path d="M7.517207 511.656169c0.056282-235.053434 163.305343-440.231443 392.496256-491.436662 126.33943-28.222785 246.580978-9.896394 359.885534 52.934606 13.846356 7.67582 20.205181 20.566408 17.502629 34.752502-2.462075 12.939707-13.148461 22.941502-26.885324 25.067932-8.172123 1.264806-15.406898-1.38044-22.401196-5.333472-40.857547-23.115464-84.361363-39.08518-130.335441-48.546669-199.99701-41.170678-408.016741 66.872037-489.523079 254.129908-29.605272 68.017116-41.895179 138.92098-36.425607 212.8262 13.375635 180.719968 139.439796 337.214185 312.887127 388.723326 236.71426 70.302159 483.512179-63.98222 551.381939-301.450656 33.527604-117.313869 19.227923-230.181473-39.624463-337.178369-6.91141-12.564154-8.253988-24.797779 0.195451-36.826743 13.514805-19.250436 41.345664-17.502629 53.357232 3.350304 17.764596 30.839379 31.845289 63.333444 42.636053 97.248881 20.950148 65.846684 28.197202 133.242653 21.272489 201.918779C993.245556 767.04986 850.854545 938.514023 653.739165 996.237703c-278.966573 81.693604-569.765635-89.433892-633.957633-373.134279C11.487635 586.443479 7.513114 549.258579 7.517207 511.656169L7.517207 511.656169 7.517207 511.656169z" p-id="4865" fill="#ffffff"></path><path d="M359.77604 660.786675c-13.749142 13.766538-14.376429 33.217543-1.655709 46.066175 11.352559 11.469216 29.727045 12.463869 42.196031 2.217505 2.012843-1.655709 3.843538-3.538593 5.691629-5.385661 50.379411-50.364061 100.67798-100.81408 151.20577-151.032832 8.416693-8.363482 12.526291-17.646915 12.404518-29.618575-0.366344-35.510772-0.1361-71.024613-0.144286-106.536408-0.00921-36.817534 0.096191-73.635067-0.065492-110.449531-0.061398-13.553691-6.768147-23.385617-19.141966-28.566616-12.346189-5.173836-23.995507-2.968611-33.902134 6.178723-7.322779 6.764054-9.924024 15.515369-9.906627 25.356504 0.091074 52.284807 0.065492 104.569614 0.082888 156.855444 0.005117 13.941524-0.182149 27.888164 0.105401 41.824571 0.091074 4.519943-1.295506 7.649214-4.471848 10.813277C454.636524 565.859675 407.194002 613.31243 359.77604 660.786675z" p-id="4866" fill="#ffffff"></path></svg>