<svg t="1570181480969" class="icon" viewBox="0 0 1024 1024" version="1.1" xmlns="http://www.w3.org/2000/svg" p-id="1920" width="200" height="200"><path d="M703.998185 191.999505c0-106.039727-85.959778-191.999505-191.999505-191.999505s-191.999505 85.959778-191.999505 191.999505 85.959778 191.999505 191.999505 191.999505 191.999505-85.959778 191.999505-191.999505zM467.178796 482.198757c-118.659694-72.639813-310.859199-92.599761-407.57895-98.099747C27.09993 382.259014 0 407.018951 0 438.27887v445.598851c0 28.659926 23.17994 52.559864 52.979863 54.099861 87.319775 4.579988 263.979319 21.359945 386.079005 82.859786 18.739952 9.439976 40.959894-3.419991 40.959894-23.739939V505.118698c-0.02-9.339976-4.639988-17.899954-12.839966-22.919941z m497.218718-98.099747c-96.699751 5.479986-288.919255 25.459934-407.55895 98.099747-8.199979 5.019987-12.819967 13.919964-12.819967 23.25994v491.578733c0 20.379947 22.279943 33.259914 41.079895 23.799938 122.079685-61.439842 298.63923-78.219798 385.939005-82.799786 29.799923-1.559996 52.979863-25.459934 52.979863-54.119861V438.27887c-0.02-31.259919-27.11993-56.019856-59.619846-54.17986z" fill="#ffffff" p-id="1921"></path></svg>